# xmcd
#
# Track frame offsets:
#	150
#	15718
#	31084
#	42194
#	54231
#	71645
#	84894
#	97857
#	113446
#	124347
#	139247
#	153206
#	166970
#	181166
#	194954
#	209248
#	219822
#	234101
#	245274
#	258934
#
# Disc length: 3634 seconds
#
# Revision: 0
# Processed by: cddbd v1.5.2PL0 Copyright (c) Steve Scherf et al.
# Submitted via: EasyCDDAExtractor 15.3.0.1
#
DISCID=030e3014
DTITLE=Jones George - Jones Country - You've Still Got A Place In My Heart
DYEAR=1900
DGENRE=
TTITLE0=Radio Lover
TTITLE1=Dream On
TTITLE2=Hello Trouble
TTITLE3=Burning Bridges
TTITLE4=Wino The Clown
TTITLE5=You Must Have Walked Across My Mind Again
TTITLE6=I'd Rather Die Young
TTITLE7=Girl At The End Of The Bar
TTITLE8=One Of These Days (But Not Tonight)
TTITLE9=Famous Last Words
TTITLE10=You've Still Got A Place In My Heart
TTITLE11=From Strangers To Lovers To Friends
TTITLE12=Second Time Around
TTITLE13=Come Sundown
TTITLE14=Even The Bad Times Are Good
TTITLE15=I'm Ragged But Right
TTITLE16=Courtin' In The Rain
TTITLE17=Loveshine
TTITLE18=Your Lying Blue Eyes
TTITLE19=Learning To Do Without Me
EXTD=
EXTT0=
EXTT1=
EXTT2=
EXTT3=
EXTT4=
EXTT5=
EXTT6=
EXTT7=
EXTT8=
EXTT9=
EXTT10=
EXTT11=
EXTT12=
EXTT13=
EXTT14=
EXTT15=
EXTT16=
EXTT17=
EXTT18=
EXTT19=
PLAYORDER=
